<svg xmlns="http://www.w3.org/2000/svg" xmlns:xlink="http://www.w3.org/1999/xlink" width="1800" zoomAndPan="magnify" viewBox="0 0 1350 374.999991" height="500" preserveAspectRatio="xMidYMid meet" version="1.0"><defs><filter x="0%" y="0%" width="100%" height="100%" id="010938290d"><feColorMatrix values="0 0 0 0 1 0 0 0 0 1 0 0 0 0 1 0 0 0 1 0" color-interpolation-filters="sRGB"/></filter><g/><mask id="62ec298cf8"><g filter="url(#010938290d)"><rect x="-135" width="1620" fill="#000000" y="-37.499999" height="449.999989" fill-opacity="0.7"/></g></mask><clipPath id="1dec114f3f"><path d="M 10 9 L 279 9 L 279 286 L 10 286 Z M 10 9 " clip-rule="nonzero"/></clipPath><clipPath id="c8118720da"><path d="M 0.9375 61.660156 L 223.210938 0.125 L 287.871094 233.6875 L 65.597656 295.222656 Z M 0.9375 61.660156 " clip-rule="nonzero"/></clipPath><clipPath id="1667c1bec2"><path d="M 40.1875 50.796875 L 183.964844 10.992188 C 205.640625 4.992188 228.078125 17.699219 234.078125 39.375 L 276.957031 194.257812 C 282.957031 215.933594 270.25 238.371094 248.574219 244.371094 L 104.792969 284.175781 C 83.117188 290.175781 60.683594 277.46875 54.679688 255.792969 L 11.804688 100.910156 C 5.800781 79.230469 18.511719 56.796875 40.1875 50.796875 Z M 40.1875 50.796875 " clip-rule="nonzero"/></clipPath><clipPath id="9e9b9de57c"><path d="M 0 0 L 269 0 L 269 277 L 0 277 Z M 0 0 " clip-rule="nonzero"/></clipPath><clipPath id="72e5765556"><path d="M -9.0625 52.660156 L 213.210938 -8.875 L 277.871094 224.6875 L 55.597656 286.222656 Z M -9.0625 52.660156 " clip-rule="nonzero"/></clipPath><clipPath id="198f47dbf1"><path d="M 30.1875 41.796875 L 173.964844 1.992188 C 195.640625 -4.007812 218.078125 8.699219 224.078125 30.375 L 266.957031 185.257812 C 272.957031 206.933594 260.25 229.371094 238.574219 235.371094 L 94.792969 275.175781 C 73.117188 281.175781 50.683594 268.46875 44.679688 246.792969 L 1.804688 91.910156 C -4.199219 70.230469 8.511719 47.796875 30.1875 41.796875 Z M 30.1875 41.796875 " clip-rule="nonzero"/></clipPath><clipPath id="6e817a08f4"><path d="M -9.0625 52.660156 L 213.210938 -8.875 L 277.871094 224.6875 L 55.597656 286.222656 Z M -9.0625 52.660156 " clip-rule="nonzero"/></clipPath><clipPath id="8f6b5bad22"><path d="M -9.0625 52.65625 L 213.210938 -8.878906 L 277.820312 224.5 L 55.546875 286.035156 Z M -9.0625 52.65625 " clip-rule="nonzero"/></clipPath><linearGradient x1="-62.470141" gradientTransform="matrix(0.868258, -0.240367, 0.240367, 0.868258, -9.062991, 52.656731)" y1="134.395004" x2="318.470127" gradientUnits="userSpaceOnUse" y2="134.395004" id="135636bfa0"><stop stop-opacity="1" stop-color="rgb(100%, 87.059021%, 34.899902%)" offset="0"/><stop stop-opacity="1" stop-color="rgb(100%, 87.059021%, 34.899902%)" offset="0.125"/><stop stop-opacity="1" stop-color="rgb(100%, 87.059021%, 34.899902%)" offset="0.15625"/><stop stop-opacity="1" stop-color="rgb(100%, 86.882019%, 34.870911%)" offset="0.171875"/><stop stop-opacity="1" stop-color="rgb(100%, 86.529541%, 34.815979%)" offset="0.179687"/><stop stop-opacity="1" stop-color="rgb(100%, 86.178589%, 34.762573%)" offset="0.1875"/><stop stop-opacity="1" stop-color="rgb(100%, 85.827637%, 34.707642%)" offset="0.195312"/><stop stop-opacity="1" stop-color="rgb(100%, 85.476685%, 34.65271%)" offset="0.203125"/><stop stop-opacity="1" stop-color="rgb(100%, 85.124207%, 34.597778%)" offset="0.210937"/><stop stop-opacity="1" stop-color="rgb(100%, 84.773254%, 34.542847%)" offset="0.21875"/><stop stop-opacity="1" stop-color="rgb(100%, 84.422302%, 34.489441%)" offset="0.226562"/><stop stop-opacity="1" stop-color="rgb(100%, 84.07135%, 34.434509%)" offset="0.234375"/><stop stop-opacity="1" stop-color="rgb(100%, 83.720398%, 34.379578%)" offset="0.242188"/><stop stop-opacity="1" stop-color="rgb(100%, 83.369446%, 34.324646%)" offset="0.25"/><stop stop-opacity="1" stop-color="rgb(100%, 83.018494%, 34.269714%)" offset="0.257812"/><stop stop-opacity="1" stop-color="rgb(100%, 82.667542%, 34.216309%)" offset="0.265625"/><stop stop-opacity="1" stop-color="rgb(100%, 82.316589%, 34.161377%)" offset="0.273437"/><stop stop-opacity="1" stop-color="rgb(100%, 81.965637%, 34.106445%)" offset="0.28125"/><stop stop-opacity="1" stop-color="rgb(100%, 81.614685%, 34.051514%)" offset="0.289062"/><stop stop-opacity="1" stop-color="rgb(100%, 81.262207%, 33.996582%)" offset="0.296875"/><stop stop-opacity="1" stop-color="rgb(100%, 80.911255%, 33.94165%)" offset="0.304687"/><stop stop-opacity="1" stop-color="rgb(100%, 80.560303%, 33.888245%)" offset="0.3125"/><stop stop-opacity="1" stop-color="rgb(100%, 80.209351%, 33.833313%)" offset="0.320312"/><stop stop-opacity="1" stop-color="rgb(100%, 79.858398%, 33.778381%)" offset="0.328125"/><stop stop-opacity="1" stop-color="rgb(100%, 79.507446%, 33.72345%)" offset="0.335938"/><stop stop-opacity="1" stop-color="rgb(100%, 79.156494%, 33.668518%)" offset="0.34375"/><stop stop-opacity="1" stop-color="rgb(100%, 78.805542%, 33.615112%)" offset="0.351562"/><stop stop-opacity="1" stop-color="rgb(100%, 78.45459%, 33.560181%)" offset="0.359375"/><stop stop-opacity="1" stop-color="rgb(100%, 78.103638%, 33.505249%)" offset="0.367187"/><stop stop-opacity="1" stop-color="rgb(100%, 77.752686%, 33.450317%)" offset="0.375"/><stop stop-opacity="1" stop-color="rgb(100%, 77.401733%, 33.395386%)" offset="0.382812"/><stop stop-opacity="1" stop-color="rgb(100%, 77.049255%, 33.34198%)" offset="0.390625"/><stop stop-opacity="1" stop-color="rgb(100%, 76.698303%, 33.287048%)" offset="0.398437"/><stop stop-opacity="1" stop-color="rgb(100%, 76.347351%, 33.232117%)" offset="0.40625"/><stop stop-opacity="1" stop-color="rgb(100%, 75.996399%, 33.177185%)" offset="0.414062"/><stop stop-opacity="1" stop-color="rgb(100%, 75.645447%, 33.122253%)" offset="0.421875"/><stop stop-opacity="1" stop-color="rgb(100%, 75.294495%, 33.068848%)" offset="0.429688"/><stop stop-opacity="1" stop-color="rgb(100%, 74.943542%, 33.013916%)" offset="0.4375"/><stop stop-opacity="1" stop-color="rgb(100%, 74.59259%, 32.958984%)" offset="0.445312"/><stop stop-opacity="1" stop-color="rgb(100%, 74.241638%, 32.904053%)" offset="0.453125"/><stop stop-opacity="1" stop-color="rgb(100%, 73.890686%, 32.849121%)" offset="0.460937"/><stop stop-opacity="1" stop-color="rgb(100%, 73.539734%, 32.795715%)" offset="0.46875"/><stop stop-opacity="1" stop-color="rgb(100%, 73.187256%, 32.740784%)" offset="0.476562"/><stop stop-opacity="1" stop-color="rgb(100%, 72.836304%, 32.685852%)" offset="0.484375"/><stop stop-opacity="1" stop-color="rgb(100%, 72.485352%, 32.63092%)" offset="0.492187"/><stop stop-opacity="1" stop-color="rgb(100%, 72.134399%, 32.575989%)" offset="0.5"/><stop stop-opacity="1" stop-color="rgb(100%, 71.783447%, 32.521057%)" offset="0.507812"/><stop stop-opacity="1" stop-color="rgb(100%, 71.432495%, 32.467651%)" offset="0.515625"/><stop stop-opacity="1" stop-color="rgb(100%, 71.081543%, 32.41272%)" offset="0.523438"/><stop stop-opacity="1" stop-color="rgb(100%, 70.730591%, 32.357788%)" offset="0.53125"/><stop stop-opacity="1" stop-color="rgb(100%, 70.379639%, 32.302856%)" offset="0.539062"/><stop stop-opacity="1" stop-color="rgb(100%, 70.028687%, 32.247925%)" offset="0.546875"/><stop stop-opacity="1" stop-color="rgb(100%, 69.677734%, 32.194519%)" offset="0.554688"/><stop stop-opacity="1" stop-color="rgb(100%, 69.326782%, 32.139587%)" offset="0.5625"/><stop stop-opacity="1" stop-color="rgb(100%, 68.974304%, 32.084656%)" offset="0.570312"/><stop stop-opacity="1" stop-color="rgb(100%, 68.623352%, 32.029724%)" offset="0.578125"/><stop stop-opacity="1" stop-color="rgb(100%, 68.2724%, 31.974792%)" offset="0.585938"/><stop stop-opacity="1" stop-color="rgb(100%, 67.921448%, 31.921387%)" offset="0.59375"/><stop stop-opacity="1" stop-color="rgb(100%, 67.570496%, 31.866455%)" offset="0.601562"/><stop stop-opacity="1" stop-color="rgb(100%, 67.219543%, 31.811523%)" offset="0.609375"/><stop stop-opacity="1" stop-color="rgb(100%, 66.868591%, 31.756592%)" offset="0.617188"/><stop stop-opacity="1" stop-color="rgb(100%, 66.517639%, 31.70166%)" offset="0.625"/><stop stop-opacity="1" stop-color="rgb(100%, 66.166687%, 31.648254%)" offset="0.632812"/><stop stop-opacity="1" stop-color="rgb(100%, 65.815735%, 31.593323%)" offset="0.640625"/><stop stop-opacity="1" stop-color="rgb(100%, 65.464783%, 31.538391%)" offset="0.648438"/><stop stop-opacity="1" stop-color="rgb(100%, 65.112305%, 31.483459%)" offset="0.65625"/><stop stop-opacity="1" stop-color="rgb(100%, 64.761353%, 31.428528%)" offset="0.664062"/><stop stop-opacity="1" stop-color="rgb(100%, 64.4104%, 31.373596%)" offset="0.671875"/><stop stop-opacity="1" stop-color="rgb(100%, 64.059448%, 31.32019%)" offset="0.679688"/><stop stop-opacity="1" stop-color="rgb(100%, 63.708496%, 31.265259%)" offset="0.6875"/><stop stop-opacity="1" stop-color="rgb(100%, 63.357544%, 31.210327%)" offset="0.695312"/><stop stop-opacity="1" stop-color="rgb(100%, 63.006592%, 31.155396%)" offset="0.703125"/><stop stop-opacity="1" stop-color="rgb(100%, 62.65564%, 31.100464%)" offset="0.710938"/><stop stop-opacity="1" stop-color="rgb(100%, 62.304688%, 31.047058%)" offset="0.71875"/><stop stop-opacity="1" stop-color="rgb(100%, 61.953735%, 30.992126%)" offset="0.726562"/><stop stop-opacity="1" stop-color="rgb(100%, 61.602783%, 30.937195%)" offset="0.734375"/><stop stop-opacity="1" stop-color="rgb(100%, 61.250305%, 30.882263%)" offset="0.742188"/><stop stop-opacity="1" stop-color="rgb(100%, 60.899353%, 30.827332%)" offset="0.75"/><stop stop-opacity="1" stop-color="rgb(100%, 60.548401%, 30.773926%)" offset="0.757812"/><stop stop-opacity="1" stop-color="rgb(100%, 60.197449%, 30.718994%)" offset="0.765625"/><stop stop-opacity="1" stop-color="rgb(100%, 59.846497%, 30.664062%)" offset="0.773438"/><stop stop-opacity="1" stop-color="rgb(100%, 59.495544%, 30.609131%)" offset="0.78125"/><stop stop-opacity="1" stop-color="rgb(100%, 59.144592%, 30.554199%)" offset="0.789062"/><stop stop-opacity="1" stop-color="rgb(100%, 58.79364%, 30.500793%)" offset="0.796875"/><stop stop-opacity="1" stop-color="rgb(100%, 58.442688%, 30.445862%)" offset="0.804688"/><stop stop-opacity="1" stop-color="rgb(100%, 58.091736%, 30.39093%)" offset="0.8125"/><stop stop-opacity="1" stop-color="rgb(100%, 57.740784%, 30.335999%)" offset="0.820312"/><stop stop-opacity="1" stop-color="rgb(100%, 57.389832%, 30.281067%)" offset="0.828125"/><stop stop-opacity="1" stop-color="rgb(100%, 57.035828%, 30.226135%)" offset="0.84375"/><stop stop-opacity="1" stop-color="rgb(100%, 56.858826%, 30.198669%)" offset="0.875"/><stop stop-opacity="1" stop-color="rgb(100%, 56.858826%, 30.198669%)" offset="1"/></linearGradient><clipPath id="c43da547fc"><rect x="0" width="269" y="0" height="277"/></clipPath><clipPath id="1ebfdd05ae"><rect x="0" width="289" y="0" height="296"/></clipPath><mask id="15678d4316"><g filter="url(#010938290d)"><rect x="-135" width="1620" fill="#000000" y="-37.499999" height="449.999989" fill-opacity="0.8"/></g></mask><clipPath id="57540a4e08"><path d="M 6 17 L 253 17 L 253 268 L 6 268 Z M 6 17 " clip-rule="nonzero"/></clipPath><clipPath id="139c74e09d"><path d="M 60.664062 -15.960938 L 306.90625 51.074219 L 246.601562 272.597656 L 0.359375 205.566406 Z M 60.664062 -15.960938 " clip-rule="nonzero"/></clipPath><clipPath id="7cd2ce9769"><path d="M 199.742188 35.058594 L 252.148438 237.464844 C 254.261719 245.621094 251.871094 254.28125 245.878906 260.203125 C 239.882812 266.121094 231.191406 268.402344 223.0625 266.191406 L 23.488281 211.863281 C 15.359375 209.648438 9.023438 203.277344 6.859375 195.136719 C 4.691406 186.996094 7.023438 178.316406 12.976562 172.355469 L 160.75 24.445312 C 166.652344 18.535156 175.269531 16.246094 183.324219 18.4375 C 191.382812 20.632812 197.648438 26.972656 199.742188 35.058594 Z M 199.742188 35.058594 " clip-rule="nonzero"/></clipPath><clipPath id="46de94fefb"><path d="M 0 0 L 247 0 L 247 251 L 0 251 Z M 0 0 " clip-rule="nonzero"/></clipPath><clipPath id="841e664319"><path d="M 54.664062 -32.960938 L 300.90625 34.074219 L 240.601562 255.597656 L -5.640625 188.566406 Z M 54.664062 -32.960938 " clip-rule="nonzero"/></clipPath><clipPath id="9412c8316f"><path d="M 193.742188 18.058594 L 246.148438 220.464844 C 248.261719 228.621094 245.871094 237.28125 239.878906 243.203125 C 233.882812 249.121094 225.191406 251.402344 217.0625 249.191406 L 17.488281 194.863281 C 9.359375 192.648438 3.023438 186.277344 0.859375 178.136719 C -1.308594 169.996094 1.023438 161.316406 6.976562 155.355469 L 154.75 7.445312 C 160.652344 1.535156 169.269531 -0.753906 177.324219 1.4375 C 185.382812 3.632812 191.648438 9.972656 193.742188 18.058594 Z M 193.742188 18.058594 " clip-rule="nonzero"/></clipPath><clipPath id="fd7a7c069f"><path d="M 44.453125 -59.226562 L 323.023438 16.605469 L 256.765625 260 L -21.804688 184.164062 Z M 44.453125 -59.226562 " clip-rule="nonzero"/></clipPath><clipPath id="0b23569b2e"><path d="M 54.730469 -31.9375 L 299.914062 34.808594 L 239.863281 255.398438 L -5.316406 188.652344 Z M 54.730469 -31.9375 " clip-rule="nonzero"/></clipPath><linearGradient x1="-29.218948" gradientTransform="matrix(0.950751, 0.258816, -0.258816, 0.950751, 44.448199, -59.22775)" y1="139.992004" x2="282.386065" gradientUnits="userSpaceOnUse" y2="139.992004" id="f66645cec5"><stop stop-opacity="1" stop-color="rgb(100%, 19.219971%, 19.219971%)" offset="0"/><stop stop-opacity="1" stop-color="rgb(100%, 19.219971%, 19.219971%)" offset="0.125"/><stop stop-opacity="1" stop-color="rgb(100%, 19.374084%, 19.264221%)" offset="0.15625"/><stop stop-opacity="1" stop-color="rgb(100%, 19.706726%, 19.361877%)" offset="0.164062"/><stop stop-opacity="1" stop-color="rgb(100%, 20.062256%, 19.465637%)" offset="0.171875"/><stop stop-opacity="1" stop-color="rgb(100%, 20.41626%, 19.569397%)" offset="0.179687"/><stop stop-opacity="1" stop-color="rgb(100%, 20.77179%, 19.673157%)" offset="0.1875"/><stop stop-opacity="1" stop-color="rgb(100%, 21.127319%, 19.775391%)" offset="0.195312"/><stop stop-opacity="1" stop-color="rgb(100%, 21.482849%, 19.87915%)" offset="0.203125"/><stop stop-opacity="1" stop-color="rgb(100%, 21.838379%, 19.98291%)" offset="0.210937"/><stop stop-opacity="1" stop-color="rgb(100%, 22.193909%, 20.08667%)" offset="0.21875"/><stop stop-opacity="1" stop-color="rgb(100%, 22.549438%, 20.19043%)" offset="0.226562"/><stop stop-opacity="1" stop-color="rgb(100%, 22.904968%, 20.294189%)" offset="0.234375"/><stop stop-opacity="1" stop-color="rgb(100%, 23.258972%, 20.397949%)" offset="0.242187"/><stop stop-opacity="1" stop-color="rgb(100%, 23.614502%, 20.501709%)" offset="0.25"/><stop stop-opacity="1" stop-color="rgb(100%, 23.970032%, 20.605469%)" offset="0.257812"/><stop stop-opacity="1" stop-color="rgb(100%, 24.325562%, 20.709229%)" offset="0.265625"/><stop stop-opacity="1" stop-color="rgb(100%, 24.681091%, 20.812988%)" offset="0.273438"/><stop stop-opacity="1" stop-color="rgb(100%, 25.036621%, 20.916748%)" offset="0.28125"/><stop stop-opacity="1" stop-color="rgb(100%, 25.392151%, 21.020508%)" offset="0.289062"/><stop stop-opacity="1" stop-color="rgb(100%, 25.746155%, 21.124268%)" offset="0.296875"/><stop stop-opacity="1" stop-color="rgb(100%, 26.101685%, 21.226501%)" offset="0.304687"/><stop stop-opacity="1" stop-color="rgb(100%, 26.457214%, 21.330261%)" offset="0.3125"/><stop stop-opacity="1" stop-color="rgb(100%, 26.812744%, 21.434021%)" offset="0.320312"/><stop stop-opacity="1" stop-color="rgb(100%, 27.168274%, 21.537781%)" offset="0.328125"/><stop stop-opacity="1" stop-color="rgb(100%, 27.523804%, 21.641541%)" offset="0.335937"/><stop stop-opacity="1" stop-color="rgb(100%, 27.879333%, 21.7453%)" offset="0.34375"/><stop stop-opacity="1" stop-color="rgb(100%, 28.233337%, 21.84906%)" offset="0.351562"/><stop stop-opacity="1" stop-color="rgb(100%, 28.588867%, 21.95282%)" offset="0.359375"/><stop stop-opacity="1" stop-color="rgb(100%, 28.944397%, 22.05658%)" offset="0.367187"/><stop stop-opacity="1" stop-color="rgb(100%, 29.299927%, 22.160339%)" offset="0.375"/><stop stop-opacity="1" stop-color="rgb(100%, 29.655457%, 22.264099%)" offset="0.382812"/><stop stop-opacity="1" stop-color="rgb(100%, 30.010986%, 22.367859%)" offset="0.390625"/><stop stop-opacity="1" stop-color="rgb(100%, 30.366516%, 22.471619%)" offset="0.398437"/><stop stop-opacity="1" stop-color="rgb(100%, 30.722046%, 22.575378%)" offset="0.40625"/><stop stop-opacity="1" stop-color="rgb(100%, 31.07605%, 22.677612%)" offset="0.414062"/><stop stop-opacity="1" stop-color="rgb(100%, 31.43158%, 22.781372%)" offset="0.421875"/><stop stop-opacity="1" stop-color="rgb(100%, 31.787109%, 22.885132%)" offset="0.429687"/><stop stop-opacity="1" stop-color="rgb(100%, 32.142639%, 22.988892%)" offset="0.4375"/><stop stop-opacity="1" stop-color="rgb(100%, 32.498169%, 23.092651%)" offset="0.445312"/><stop stop-opacity="1" stop-color="rgb(100%, 32.853699%, 23.196411%)" offset="0.453125"/><stop stop-opacity="1" stop-color="rgb(100%, 33.209229%, 23.300171%)" offset="0.460937"/><stop stop-opacity="1" stop-color="rgb(100%, 33.563232%, 23.403931%)" offset="0.46875"/><stop stop-opacity="1" stop-color="rgb(100%, 33.918762%, 23.50769%)" offset="0.476562"/><stop stop-opacity="1" stop-color="rgb(100%, 34.274292%, 23.61145%)" offset="0.484375"/><stop stop-opacity="1" stop-color="rgb(100%, 34.629822%, 23.71521%)" offset="0.492187"/><stop stop-opacity="1" stop-color="rgb(100%, 34.985352%, 23.81897%)" offset="0.5"/><stop stop-opacity="1" stop-color="rgb(100%, 35.340881%, 23.922729%)" offset="0.507812"/><stop stop-opacity="1" stop-color="rgb(100%, 35.696411%, 24.026489%)" offset="0.515625"/><stop stop-opacity="1" stop-color="rgb(100%, 36.051941%, 24.128723%)" offset="0.523437"/><stop stop-opacity="1" stop-color="rgb(100%, 36.405945%, 24.232483%)" offset="0.53125"/><stop stop-opacity="1" stop-color="rgb(100%, 36.761475%, 24.336243%)" offset="0.539062"/><stop stop-opacity="1" stop-color="rgb(100%, 37.117004%, 24.440002%)" offset="0.546875"/><stop stop-opacity="1" stop-color="rgb(100%, 37.472534%, 24.543762%)" offset="0.554687"/><stop stop-opacity="1" stop-color="rgb(100%, 37.828064%, 24.647522%)" offset="0.5625"/><stop stop-opacity="1" stop-color="rgb(100%, 38.183594%, 24.751282%)" offset="0.570312"/><stop stop-opacity="1" stop-color="rgb(100%, 38.539124%, 24.855042%)" offset="0.578125"/><stop stop-opacity="1" stop-color="rgb(100%, 38.893127%, 24.958801%)" offset="0.585937"/><stop stop-opacity="1" stop-color="rgb(100%, 39.248657%, 25.062561%)" offset="0.59375"/><stop stop-opacity="1" stop-color="rgb(100%, 39.604187%, 25.166321%)" offset="0.601562"/><stop stop-opacity="1" stop-color="rgb(100%, 39.959717%, 25.270081%)" offset="0.609375"/><stop stop-opacity="1" stop-color="rgb(100%, 40.315247%, 25.37384%)" offset="0.617188"/><stop stop-opacity="1" stop-color="rgb(100%, 40.670776%, 25.4776%)" offset="0.625"/><stop stop-opacity="1" stop-color="rgb(100%, 41.026306%, 25.579834%)" offset="0.632812"/><stop stop-opacity="1" stop-color="rgb(100%, 41.381836%, 25.683594%)" offset="0.640625"/><stop stop-opacity="1" stop-color="rgb(100%, 41.73584%, 25.787354%)" offset="0.648437"/><stop stop-opacity="1" stop-color="rgb(100%, 42.09137%, 25.891113%)" offset="0.65625"/><stop stop-opacity="1" stop-color="rgb(100%, 42.446899%, 25.994873%)" offset="0.664062"/><stop stop-opacity="1" stop-color="rgb(100%, 42.802429%, 26.098633%)" offset="0.671875"/><stop stop-opacity="1" stop-color="rgb(100%, 43.157959%, 26.202393%)" offset="0.679687"/><stop stop-opacity="1" stop-color="rgb(100%, 43.513489%, 26.306152%)" offset="0.6875"/><stop stop-opacity="1" stop-color="rgb(100%, 43.869019%, 26.409912%)" offset="0.695312"/><stop stop-opacity="1" stop-color="rgb(100%, 44.223022%, 26.513672%)" offset="0.703125"/><stop stop-opacity="1" stop-color="rgb(100%, 44.578552%, 26.617432%)" offset="0.710938"/><stop stop-opacity="1" stop-color="rgb(100%, 44.934082%, 26.721191%)" offset="0.71875"/><stop stop-opacity="1" stop-color="rgb(100%, 45.289612%, 26.824951%)" offset="0.726562"/><stop stop-opacity="1" stop-color="rgb(100%, 45.645142%, 26.928711%)" offset="0.734375"/><stop stop-opacity="1" stop-color="rgb(100%, 46.000671%, 27.030945%)" offset="0.742187"/><stop stop-opacity="1" stop-color="rgb(100%, 46.356201%, 27.134705%)" offset="0.75"/><stop stop-opacity="1" stop-color="rgb(100%, 46.710205%, 27.238464%)" offset="0.757812"/><stop stop-opacity="1" stop-color="rgb(100%, 47.065735%, 27.342224%)" offset="0.765625"/><stop stop-opacity="1" stop-color="rgb(100%, 47.421265%, 27.445984%)" offset="0.773438"/><stop stop-opacity="1" stop-color="rgb(100%, 47.776794%, 27.549744%)" offset="0.78125"/><stop stop-opacity="1" stop-color="rgb(100%, 48.132324%, 27.653503%)" offset="0.789062"/><stop stop-opacity="1" stop-color="rgb(100%, 48.487854%, 27.757263%)" offset="0.796875"/><stop stop-opacity="1" stop-color="rgb(100%, 48.843384%, 27.861023%)" offset="0.804687"/><stop stop-opacity="1" stop-color="rgb(100%, 49.198914%, 27.964783%)" offset="0.8125"/><stop stop-opacity="1" stop-color="rgb(100%, 49.552917%, 28.068542%)" offset="0.820312"/><stop stop-opacity="1" stop-color="rgb(100%, 49.908447%, 28.172302%)" offset="0.828125"/><stop stop-opacity="1" stop-color="rgb(100%, 50.263977%, 28.276062%)" offset="0.835937"/><stop stop-opacity="1" stop-color="rgb(100%, 50.619507%, 28.379822%)" offset="0.84375"/><stop stop-opacity="1" stop-color="rgb(100%, 50.975037%, 28.483582%)" offset="0.851562"/><stop stop-opacity="1" stop-color="rgb(100%, 51.330566%, 28.585815%)" offset="0.859375"/><stop stop-opacity="1" stop-color="rgb(100%, 51.686096%, 28.689575%)" offset="0.867187"/><stop stop-opacity="1" stop-color="rgb(100%, 52.0401%, 28.793335%)" offset="0.875"/><stop stop-opacity="1" stop-color="rgb(100%, 52.39563%, 28.897095%)" offset="0.882812"/><stop stop-opacity="1" stop-color="rgb(100%, 52.75116%, 29.000854%)" offset="0.890625"/><stop stop-opacity="1" stop-color="rgb(100%, 53.106689%, 29.104614%)" offset="0.898438"/><stop stop-opacity="1" stop-color="rgb(100%, 53.462219%, 29.208374%)" offset="0.90625"/><stop stop-opacity="1" stop-color="rgb(100%, 53.817749%, 29.312134%)" offset="0.914062"/><stop stop-opacity="1" stop-color="rgb(100%, 54.173279%, 29.415894%)" offset="0.921875"/><stop stop-opacity="1" stop-color="rgb(100%, 54.528809%, 29.519653%)" offset="0.929687"/><stop stop-opacity="1" stop-color="rgb(100%, 54.882812%, 29.623413%)" offset="0.9375"/><stop stop-opacity="1" stop-color="rgb(100%, 55.238342%, 29.727173%)" offset="0.945312"/><stop stop-opacity="1" stop-color="rgb(100%, 55.593872%, 29.830933%)" offset="0.953125"/><stop stop-opacity="1" stop-color="rgb(100%, 55.949402%, 29.934692%)" offset="0.960937"/><stop stop-opacity="1" stop-color="rgb(100%, 56.304932%, 30.036926%)" offset="0.96875"/><stop stop-opacity="1" stop-color="rgb(100%, 56.671143%, 30.143738%)" offset="1"/></linearGradient><clipPath id="e0dff06de1"><rect x="0" width="247" y="0" height="251"/></clipPath><clipPath id="3dea4757ca"><rect x="0" width="308" y="0" height="273"/></clipPath><clipPath id="3c513829b4"><path d="M 1.628906 0 L 1230 0 L 1230 375 L 1.628906 375 Z M 1.628906 0 " clip-rule="nonzero"/></clipPath><clipPath id="d48cb31a1a"><path d="M 0.628906 0 L 1229 0 L 1229 375 L 0.628906 375 Z M 0.628906 0 " clip-rule="nonzero"/></clipPath><clipPath id="9886d18ffc"><path d="M 592.09375 0 L 1229 0 L 1229 375 L 592.09375 375 Z M 592.09375 0 " clip-rule="nonzero"/></clipPath><linearGradient x1="237.687" gradientTransform="matrix(0.920803, 0, 0, 0.921711, 373.230472, 84.083783)" y1="141" x2="929.3727" gradientUnits="userSpaceOnUse" y2="141" id="5b70b0a711"><stop stop-opacity="1" stop-color="rgb(100%, 19.219971%, 19.219971%)" offset="0"/><stop stop-opacity="1" stop-color="rgb(100%, 19.219971%, 19.219971%)" offset="0.5"/><stop stop-opacity="1" stop-color="rgb(100%, 19.219971%, 19.219971%)" offset="0.5625"/><stop stop-opacity="1" stop-color="rgb(100%, 19.219971%, 19.219971%)" offset="0.578125"/><stop stop-opacity="1" stop-color="rgb(100%, 19.290161%, 19.239807%)" offset="0.585938"/><stop stop-opacity="1" stop-color="rgb(100%, 19.73877%, 19.371033%)" offset="0.589844"/><stop stop-opacity="1" stop-color="rgb(100%, 20.117188%, 19.480896%)" offset="0.59375"/><stop stop-opacity="1" stop-color="rgb(100%, 20.495605%, 19.590759%)" offset="0.597656"/><stop stop-opacity="1" stop-color="rgb(100%, 20.874023%, 19.702148%)" offset="0.601562"/><stop stop-opacity="1" stop-color="rgb(100%, 21.250916%, 19.812012%)" offset="0.605469"/><stop stop-opacity="1" stop-color="rgb(100%, 21.629333%, 19.921875%)" offset="0.609375"/><stop stop-opacity="1" stop-color="rgb(100%, 22.007751%, 20.031738%)" offset="0.613281"/><stop stop-opacity="1" stop-color="rgb(100%, 22.386169%, 20.143127%)" offset="0.617188"/><stop stop-opacity="1" stop-color="rgb(100%, 22.763062%, 20.252991%)" offset="0.621094"/><stop stop-opacity="1" stop-color="rgb(100%, 23.141479%, 20.362854%)" offset="0.625"/><stop stop-opacity="1" stop-color="rgb(100%, 23.519897%, 20.472717%)" offset="0.628906"/><stop stop-opacity="1" stop-color="rgb(100%, 23.898315%, 20.584106%)" offset="0.632812"/><stop stop-opacity="1" stop-color="rgb(100%, 24.275208%, 20.69397%)" offset="0.636719"/><stop stop-opacity="1" stop-color="rgb(100%, 24.653625%, 20.805359%)" offset="0.640625"/><stop stop-opacity="1" stop-color="rgb(100%, 25.032043%, 20.915222%)" offset="0.644531"/><stop stop-opacity="1" stop-color="rgb(100%, 25.410461%, 21.025085%)" offset="0.648438"/><stop stop-opacity="1" stop-color="rgb(100%, 25.787354%, 21.134949%)" offset="0.652344"/><stop stop-opacity="1" stop-color="rgb(100%, 26.165771%, 21.246338%)" offset="0.65625"/><stop stop-opacity="1" stop-color="rgb(100%, 26.544189%, 21.356201%)" offset="0.660156"/><stop stop-opacity="1" stop-color="rgb(100%, 26.922607%, 21.466064%)" offset="0.664062"/><stop stop-opacity="1" stop-color="rgb(100%, 27.2995%, 21.575928%)" offset="0.667969"/><stop stop-opacity="1" stop-color="rgb(100%, 27.677917%, 21.687317%)" offset="0.671875"/><stop stop-opacity="1" stop-color="rgb(100%, 28.056335%, 21.79718%)" offset="0.675781"/><stop stop-opacity="1" stop-color="rgb(100%, 28.434753%, 21.907043%)" offset="0.679688"/><stop stop-opacity="1" stop-color="rgb(100%, 28.811646%, 22.016907%)" offset="0.683594"/><stop stop-opacity="1" stop-color="rgb(100%, 29.190063%, 22.128296%)" offset="0.6875"/><stop stop-opacity="1" stop-color="rgb(100%, 29.568481%, 22.238159%)" offset="0.691406"/><stop stop-opacity="1" stop-color="rgb(100%, 29.946899%, 22.348022%)" offset="0.695312"/><stop stop-opacity="1" stop-color="rgb(100%, 30.323792%, 22.457886%)" offset="0.699219"/><stop stop-opacity="1" stop-color="rgb(100%, 30.702209%, 22.569275%)" offset="0.703125"/><stop stop-opacity="1" stop-color="rgb(100%, 31.080627%, 22.679138%)" offset="0.707031"/><stop stop-opacity="1" stop-color="rgb(100%, 31.459045%, 22.789001%)" offset="0.710938"/><stop stop-opacity="1" stop-color="rgb(100%, 31.835938%, 22.898865%)" offset="0.714844"/><stop stop-opacity="1" stop-color="rgb(100%, 32.214355%, 23.010254%)" offset="0.71875"/><stop stop-opacity="1" stop-color="rgb(100%, 32.592773%, 23.120117%)" offset="0.722656"/><stop stop-opacity="1" stop-color="rgb(100%, 32.971191%, 23.22998%)" offset="0.726562"/><stop stop-opacity="1" stop-color="rgb(100%, 33.348083%, 23.339844%)" offset="0.730469"/><stop stop-opacity="1" stop-color="rgb(100%, 33.726501%, 23.451233%)" offset="0.734375"/><stop stop-opacity="1" stop-color="rgb(100%, 34.104919%, 23.561096%)" offset="0.738281"/><stop stop-opacity="1" stop-color="rgb(100%, 34.483337%, 23.672485%)" offset="0.742188"/><stop stop-opacity="1" stop-color="rgb(100%, 34.860229%, 23.782349%)" offset="0.746094"/><stop stop-opacity="1" stop-color="rgb(100%, 35.238647%, 23.892212%)" offset="0.75"/><stop stop-opacity="1" stop-color="rgb(100%, 35.61554%, 24.002075%)" offset="0.753906"/><stop stop-opacity="1" stop-color="rgb(100%, 35.993958%, 24.113464%)" offset="0.757813"/><stop stop-opacity="1" stop-color="rgb(100%, 36.372375%, 24.223328%)" offset="0.761719"/><stop stop-opacity="1" stop-color="rgb(100%, 36.750793%, 24.333191%)" offset="0.765625"/><stop stop-opacity="1" stop-color="rgb(100%, 37.127686%, 24.443054%)" offset="0.769531"/><stop stop-opacity="1" stop-color="rgb(100%, 37.506104%, 24.554443%)" offset="0.773438"/><stop stop-opacity="1" stop-color="rgb(100%, 37.884521%, 24.664307%)" offset="0.777344"/><stop stop-opacity="1" stop-color="rgb(100%, 38.262939%, 24.77417%)" offset="0.78125"/><stop stop-opacity="1" stop-color="rgb(100%, 38.639832%, 24.884033%)" offset="0.785156"/><stop stop-opacity="1" stop-color="rgb(100%, 39.01825%, 24.995422%)" offset="0.789063"/><stop stop-opacity="1" stop-color="rgb(100%, 39.396667%, 25.105286%)" offset="0.792969"/><stop stop-opacity="1" stop-color="rgb(100%, 39.775085%, 25.215149%)" offset="0.796875"/><stop stop-opacity="1" stop-color="rgb(100%, 40.151978%, 25.325012%)" offset="0.800781"/><stop stop-opacity="1" stop-color="rgb(100%, 40.530396%, 25.436401%)" offset="0.804688"/><stop stop-opacity="1" stop-color="rgb(100%, 40.908813%, 25.546265%)" offset="0.808594"/><stop stop-opacity="1" stop-color="rgb(100%, 41.287231%, 25.656128%)" offset="0.8125"/><stop stop-opacity="1" stop-color="rgb(100%, 41.664124%, 25.765991%)" offset="0.816406"/><stop stop-opacity="1" stop-color="rgb(100%, 42.042542%, 25.87738%)" offset="0.820313"/><stop stop-opacity="1" stop-color="rgb(100%, 42.420959%, 25.987244%)" offset="0.824219"/><stop stop-opacity="1" stop-color="rgb(100%, 42.799377%, 26.097107%)" offset="0.828125"/><stop stop-opacity="1" stop-color="rgb(100%, 43.17627%, 26.20697%)" offset="0.832031"/><stop stop-opacity="1" stop-color="rgb(100%, 43.554688%, 26.318359%)" offset="0.835938"/><stop stop-opacity="1" stop-color="rgb(100%, 43.933105%, 26.428223%)" offset="0.839844"/><stop stop-opacity="1" stop-color="rgb(100%, 44.311523%, 26.538086%)" offset="0.84375"/><stop stop-opacity="1" stop-color="rgb(100%, 44.688416%, 26.647949%)" offset="0.847656"/><stop stop-opacity="1" stop-color="rgb(100%, 45.066833%, 26.759338%)" offset="0.851563"/><stop stop-opacity="1" stop-color="rgb(100%, 45.445251%, 26.869202%)" offset="0.855469"/><stop stop-opacity="1" stop-color="rgb(100%, 45.823669%, 26.980591%)" offset="0.859375"/><stop stop-opacity="1" stop-color="rgb(100%, 46.200562%, 27.090454%)" offset="0.863281"/><stop stop-opacity="1" stop-color="rgb(100%, 46.578979%, 27.200317%)" offset="0.867188"/><stop stop-opacity="1" stop-color="rgb(100%, 46.957397%, 27.310181%)" offset="0.871094"/><stop stop-opacity="1" stop-color="rgb(100%, 47.335815%, 27.42157%)" offset="0.875"/><stop stop-opacity="1" stop-color="rgb(100%, 47.712708%, 27.531433%)" offset="0.878906"/><stop stop-opacity="1" stop-color="rgb(100%, 48.091125%, 27.641296%)" offset="0.882813"/><stop stop-opacity="1" stop-color="rgb(100%, 48.469543%, 27.75116%)" offset="0.886719"/><stop stop-opacity="1" stop-color="rgb(100%, 48.847961%, 27.862549%)" offset="0.890625"/><stop stop-opacity="1" stop-color="rgb(100%, 49.224854%, 27.972412%)" offset="0.894531"/><stop stop-opacity="1" stop-color="rgb(100%, 49.603271%, 28.082275%)" offset="0.898438"/><stop stop-opacity="1" stop-color="rgb(100%, 49.981689%, 28.192139%)" offset="0.902344"/><stop stop-opacity="1" stop-color="rgb(100%, 50.360107%, 28.303528%)" offset="0.90625"/><stop stop-opacity="1" stop-color="rgb(100%, 50.737%, 28.413391%)" offset="0.910156"/><stop stop-opacity="1" stop-color="rgb(100%, 51.115417%, 28.523254%)" offset="0.914063"/><stop stop-opacity="1" stop-color="rgb(100%, 51.493835%, 28.633118%)" offset="0.917969"/><stop stop-opacity="1" stop-color="rgb(100%, 51.872253%, 28.744507%)" offset="0.921875"/><stop stop-opacity="1" stop-color="rgb(100%, 52.249146%, 28.85437%)" offset="0.925781"/><stop stop-opacity="1" stop-color="rgb(100%, 52.627563%, 28.964233%)" offset="0.929688"/><stop stop-opacity="1" stop-color="rgb(100%, 53.005981%, 29.074097%)" offset="0.933594"/><stop stop-opacity="1" stop-color="rgb(100%, 53.384399%, 29.185486%)" offset="0.9375"/><stop stop-opacity="1" stop-color="rgb(100%, 53.761292%, 29.295349%)" offset="0.941406"/><stop stop-opacity="1" stop-color="rgb(100%, 54.139709%, 29.405212%)" offset="0.945313"/><stop stop-opacity="1" stop-color="rgb(100%, 54.516602%, 29.515076%)" offset="0.949219"/><stop stop-opacity="1" stop-color="rgb(100%, 54.89502%, 29.626465%)" offset="0.953125"/><stop stop-opacity="1" stop-color="rgb(100%, 55.273438%, 29.736328%)" offset="0.957031"/><stop stop-opacity="1" stop-color="rgb(100%, 55.651855%, 29.847717%)" offset="0.960938"/><stop stop-opacity="1" stop-color="rgb(100%, 56.028748%, 29.957581%)" offset="0.964844"/><stop stop-opacity="1" stop-color="rgb(100%, 56.407166%, 30.067444%)" offset="0.96875"/><stop stop-opacity="1" stop-color="rgb(100%, 56.632996%, 30.133057%)" offset="0.972656"/><stop stop-opacity="1" stop-color="rgb(100%, 56.858826%, 30.198669%)" offset="0.976562"/><stop stop-opacity="1" stop-color="rgb(100%, 56.858826%, 30.198669%)" offset="0.984375"/><stop stop-opacity="1" stop-color="rgb(100%, 56.858826%, 30.198669%)" offset="1"/></linearGradient><clipPath id="9be14c5426"><rect x="0" width="1229" y="0" height="375"/></clipPath><clipPath id="e2da213b24"><path d="M 0.628906 0 L 1229 0 L 1229 375 L 0.628906 375 Z M 0.628906 0 " clip-rule="nonzero"/></clipPath><clipPath id="df187cb5f5"><rect x="0" width="1229" y="0" height="375"/></clipPath><clipPath id="8eaacbbeb8"><rect x="0" width="1229" y="0" height="375"/></clipPath><mask id="e8b8128181"><g filter="url(#010938290d)"><g><g clip-path="url(#8eaacbbeb8)"><g clip-path="url(#e2da213b24)"><g><g clip-path="url(#df187cb5f5)"><g fill="#000000" fill-opacity="1"><g transform="translate(964.249182, 260.570005)"><g><path d="M 42.453125 -131.84375 L 42.453125 -51.578125 C 42.453125 -43.390625 45.023438 -36.65625 50.171875 -31.375 C 55.328125 -26.101562 61.632812 -23.46875 69.09375 -23.46875 C 76.664062 -23.46875 82.960938 -26.226562 87.984375 -31.75 C 93.015625 -37.269531 95.53125 -43.878906 95.53125 -51.578125 L 95.53125 -131.84375 L 124.578125 -131.84375 L 124.578125 -50.28125 C 124.578125 -34.144531 119.609375 -21.171875 109.671875 -11.359375 C 99.742188 -1.546875 86.21875 3.359375 69.09375 3.359375 C 52.082031 3.359375 38.546875 -1.515625 28.484375 -11.265625 C 18.429688 -21.015625 13.40625 -34.019531 13.40625 -50.28125 L 13.40625 -131.84375 Z M 42.453125 -131.84375 "/></g></g></g><g fill="#000000" fill-opacity="1"><g transform="translate(1098.509881, 260.570005)"><g><path d="M 66.296875 -92.734375 C 79.578125 -92.734375 90.3125 -88.359375 98.5 -79.609375 C 106.695312 -70.859375 110.796875 -59.65625 110.796875 -46 C 110.796875 -32.21875 106.914062 -20.734375 99.15625 -11.546875 C 91.394531 -2.359375 81.492188 2.234375 69.453125 2.234375 C 56.171875 2.234375 46.613281 -1.738281 40.78125 -9.6875 L 40.40625 -9.6875 L 40.40625 42.453125 L 12.484375 42.453125 L 12.484375 -90.5 L 38.171875 -90.5 L 38.171875 -78.578125 L 38.546875 -78.578125 C 41.648438 -82.929688 45.710938 -86.378906 50.734375 -88.921875 C 55.765625 -91.460938 60.953125 -92.734375 66.296875 -92.734375 Z M 38.171875 -45.25 C 38.171875 -38.425781 40.15625 -32.898438 44.125 -28.671875 C 48.101562 -24.453125 53.566406 -22.34375 60.515625 -22.34375 C 67.347656 -22.34375 72.78125 -24.390625 76.8125 -28.484375 C 80.851562 -32.585938 82.875 -38.175781 82.875 -45.25 C 82.875 -52.320312 80.851562 -57.90625 76.8125 -62 C 72.78125 -66.101562 67.285156 -68.15625 60.328125 -68.15625 C 53.503906 -68.15625 48.101562 -66.015625 44.125 -61.734375 C 40.15625 -57.453125 38.171875 -51.957031 38.171875 -45.25 Z M 38.171875 -45.25 "/></g></g></g></g></g></g></g></g></g></mask><clipPath id="e738ebf890"><path d="M 592.09375 0 L 1229 0 L 1229 375 L 592.09375 375 Z M 592.09375 0 " clip-rule="nonzero"/></clipPath><clipPath id="a7a449a169"><rect x="0" width="1229" y="0" height="375"/></clipPath><clipPath id="1615045e98"><rect x="0" width="1229" y="0" height="375"/></clipPath><clipPath id="a3fdc3da6a"><rect x="0" width="1230" y="0" height="375"/></clipPath></defs><g mask="url(#62ec298cf8)"><g transform="matrix(1, 0, 0, 1, 10, 66)"><g clip-path="url(#1ebfdd05ae)"><g clip-path="url(#1dec114f3f)"><g clip-path="url(#c8118720da)"><g clip-path="url(#1667c1bec2)"><g transform="matrix(1, 0, 0, 1, 10, 9)"><g clip-path="url(#c43da547fc)"><g clip-path="url(#9e9b9de57c)"><g clip-path="url(#72e5765556)"><g clip-path="url(#198f47dbf1)"><g clip-path="url(#6e817a08f4)"><g clip-path="url(#8f6b5bad22)"><path fill="url(#135636bfa0)" d="M -77.527344 16.292969 L 15.53125 352.441406 L 346.285156 260.875 L 253.226562 -75.273438 Z M -77.527344 16.292969 " fill-rule="nonzero"/></g></g></g></g></g></g></g></g></g></g></g></g></g><g mask="url(#15678d4316)"><g transform="matrix(1, 0, 0, 1, 178, 0)"><g clip-path="url(#3dea4757ca)"><g clip-path="url(#57540a4e08)"><g clip-path="url(#139c74e09d)"><g clip-path="url(#7cd2ce9769)"><g transform="matrix(1, 0, 0, 1, 6, 17)"><g clip-path="url(#e0dff06de1)"><g clip-path="url(#46de94fefb)"><g clip-path="url(#841e664319)"><g clip-path="url(#9412c8316f)"><g clip-path="url(#fd7a7c069f)"><g clip-path="url(#0b23569b2e)"><path fill="url(#f66645cec5)" d="M 15.910156 -64.007812 L -65.214844 234.007812 L 231.042969 314.65625 L 312.167969 16.640625 Z M 15.910156 -64.007812 " fill-rule="nonzero"/></g></g></g></g></g></g></g></g></g></g></g></g></g><g transform="matrix(1, 0, 0, 1, 120, 0)"><g clip-path="url(#a3fdc3da6a)"><g fill="#000000" fill-opacity="1"><g transform="translate(373.827524, 260.570005)"><g><path d="M 58.09375 -135.1875 C 74.488281 -135.1875 87.960938 -130.597656 98.515625 -121.421875 L 78.578125 -99.625 C 76.222656 -102.601562 73.023438 -104.804688 68.984375 -106.234375 C 64.953125 -107.660156 61.140625 -108.375 57.546875 -108.375 C 52.078125 -108.375 47.445312 -107.132812 43.65625 -104.65625 C 39.875 -102.175781 37.984375 -98.882812 37.984375 -94.78125 C 37.984375 -91.1875 39.441406 -88.175781 42.359375 -85.75 C 45.273438 -83.332031 49.835938 -81.253906 56.046875 -79.515625 C 70.328125 -75.296875 79.796875 -71.632812 84.453125 -68.53125 C 89.109375 -65.425781 92.644531 -61.546875 95.0625 -56.890625 C 97.488281 -52.234375 98.703125 -46.613281 98.703125 -40.03125 C 98.703125 -26.75 94.078125 -16.195312 84.828125 -8.375 C 75.578125 -0.550781 63.253906 3.359375 47.859375 3.359375 C 30.109375 3.359375 15.332031 -2.164062 3.53125 -13.21875 L 24.203125 -35.9375 C 30.660156 -27.625 39.101562 -23.46875 49.53125 -23.46875 C 55.113281 -23.46875 59.859375 -24.707031 63.765625 -27.1875 C 67.679688 -29.664062 69.640625 -33.019531 69.640625 -37.25 C 69.640625 -44.195312 63.679688 -49.535156 51.765625 -53.265625 C 36.617188 -57.859375 26.75 -61.734375 22.15625 -64.890625 C 17.5625 -68.054688 14.023438 -71.8125 11.546875 -76.15625 C 9.066406 -80.507812 7.828125 -85.910156 7.828125 -92.359375 C 7.828125 -105.023438 12.507812 -115.328125 21.875 -123.265625 C 31.25 -131.210938 43.320312 -135.1875 58.09375 -135.1875 Z M 58.09375 -135.1875 "/></g></g></g><g fill="#000000" fill-opacity="1"><g transform="translate(476.990362, 260.570005)"><g><path d="M 50.84375 -92.734375 C 56.300781 -92.734375 61.601562 -91.460938 66.75 -88.921875 C 71.90625 -86.378906 75.910156 -82.929688 78.765625 -78.578125 L 79.140625 -78.578125 L 79.140625 -90.5 L 104.84375 -90.5 L 104.84375 42.453125 L 76.90625 42.453125 L 76.90625 -9.6875 L 76.53125 -9.6875 C 70.695312 -1.738281 61.140625 2.234375 47.859375 2.234375 C 35.941406 2.234375 26.070312 -2.421875 18.25 -11.734375 C 10.425781 -21.046875 6.515625 -32.46875 6.515625 -46 C 6.515625 -59.65625 10.609375 -70.859375 18.796875 -79.609375 C 26.992188 -88.359375 37.675781 -92.734375 50.84375 -92.734375 Z M 34.453125 -45.25 C 34.453125 -38.425781 36.4375 -32.898438 40.40625 -28.671875 C 44.382812 -24.453125 49.847656 -22.34375 56.796875 -22.34375 C 63.617188 -22.34375 69.046875 -24.390625 73.078125 -28.484375 C 77.117188 -32.585938 79.140625 -38.175781 79.140625 -45.25 C 79.140625 -52.320312 77.117188 -57.90625 73.078125 -62 C 69.046875 -66.101562 63.554688 -68.15625 56.609375 -68.15625 C 49.898438 -68.15625 44.53125 -66.046875 40.5 -61.828125 C 36.46875 -57.609375 34.453125 -52.082031 34.453125 -45.25 Z M 34.453125 -45.25 "/></g></g></g><g fill="#000000" fill-opacity="1"><g transform="translate(590.581224, 260.570005)"><g><path d="M 37.796875 -90.5 L 37.796875 -45.625 C 37.796875 -38.914062 38.257812 -34.195312 39.1875 -31.46875 C 40.125 -28.738281 41.644531 -26.535156 43.75 -24.859375 C 45.863281 -23.179688 48.722656 -22.34375 52.328125 -22.34375 C 58.285156 -22.34375 62.566406 -24.171875 65.171875 -27.828125 C 67.785156 -31.492188 69.09375 -37.113281 69.09375 -44.6875 L 69.09375 -90.5 L 97.015625 -90.5 L 97.015625 0 L 70.203125 0 L 70.203125 -12.296875 L 69.828125 -12.296875 C 67.347656 -7.703125 63.78125 -4.128906 59.125 -1.578125 C 54.46875 0.960938 49.160156 2.234375 43.203125 2.234375 C 31.285156 2.234375 22.75 -1.082031 17.59375 -7.71875 C 12.445312 -14.363281 9.875 -24.953125 9.875 -39.484375 L 9.875 -90.5 Z M 37.796875 -90.5 "/></g></g></g><g fill="#000000" fill-opacity="1"><g transform="translate(693.744062, 260.570005)"><g><path d="M 51.03125 -92.734375 C 65.425781 -92.734375 75.910156 -89.253906 82.484375 -82.296875 C 89.066406 -75.347656 92.359375 -63.679688 92.359375 -47.296875 L 92.359375 0 L 66.671875 0 L 66.671875 -11.359375 L 66.296875 -11.359375 C 60.460938 -2.296875 50.898438 2.234375 37.609375 2.234375 C 28.179688 2.234375 20.457031 -0.335938 14.4375 -5.484375 C 8.414062 -10.640625 5.40625 -17.378906 5.40625 -25.703125 C 5.40625 -32.898438 7.453125 -38.890625 11.546875 -43.671875 C 15.640625 -48.453125 21.8125 -51.957031 30.0625 -54.1875 C 38.320312 -56.425781 50.523438 -57.546875 66.671875 -57.546875 C 66.671875 -62.378906 64.867188 -66.285156 61.265625 -69.265625 C 57.660156 -72.253906 53.503906 -73.75 48.796875 -73.75 C 40.097656 -73.75 32.523438 -70.144531 26.078125 -62.9375 L 11.171875 -78.21875 C 16.390625 -83.300781 22.566406 -86.988281 29.703125 -89.28125 C 36.835938 -91.582031 43.945312 -92.734375 51.03125 -92.734375 Z M 32.21875 -26.625 C 32.21875 -23.644531 33.488281 -21.253906 36.03125 -19.453125 C 38.570312 -17.660156 41.769531 -16.765625 45.625 -16.765625 C 51.832031 -16.765625 56.890625 -18.34375 60.796875 -21.5 C 64.710938 -24.664062 66.671875 -28.796875 66.671875 -33.890625 L 66.671875 -39.671875 L 58.28125 -39.671875 C 49.84375 -39.671875 43.390625 -38.519531 38.921875 -36.21875 C 34.453125 -33.925781 32.21875 -30.726562 32.21875 -26.625 Z M 32.21875 -26.625 "/></g></g></g><g fill="#000000" fill-opacity="1"><g transform="translate(790.016974, 260.570005)"><g><path d="M 64.4375 -92.734375 C 68.28125 -92.734375 71.320312 -92.425781 73.5625 -91.8125 L 73.5625 -66.296875 C 69.332031 -67.535156 65.359375 -68.15625 61.640625 -68.15625 C 53.191406 -68.15625 47.101562 -66.070312 43.375 -61.90625 C 39.65625 -57.75 37.796875 -50.085938 37.796875 -38.921875 L 37.796875 0 L 9.875 0 L 9.875 -90.5 L 37.796875 -90.5 L 37.796875 -75.984375 L 38.171875 -75.984375 C 41.148438 -81.566406 44.6875 -85.753906 48.78125 -88.546875 C 52.882812 -91.335938 58.101562 -92.734375 64.4375 -92.734375 Z M 64.4375 -92.734375 "/></g></g></g><g fill="#000000" fill-opacity="1"><g transform="translate(862.081924, 260.570005)"><g><path d="M 7.078125 -45.25 C 7.078125 -59.15625 11.789062 -70.546875 21.21875 -79.421875 C 30.65625 -88.296875 42.945312 -92.734375 58.09375 -92.734375 C 70.757812 -92.734375 80.878906 -88.359375 88.453125 -79.609375 C 96.023438 -70.859375 99.8125 -59.09375 99.8125 -44.3125 L 99.8125 -36.5 L 35.015625 -36.5 C 36.128906 -31.28125 38.484375 -27.054688 42.078125 -23.828125 C 45.679688 -20.609375 50.335938 -19 56.046875 -19 C 63.742188 -19 70.390625 -22.660156 75.984375 -29.984375 L 95.53125 -15.640625 C 91.0625 -9.929688 85.316406 -5.523438 78.296875 -2.421875 C 71.285156 0.679688 64.304688 2.234375 57.359375 2.234375 C 42.953125 2.234375 30.96875 -2.203125 21.40625 -11.078125 C 11.851562 -19.953125 7.078125 -31.34375 7.078125 -45.25 Z M 71.875 -55.5 C 71.875 -60.707031 70.195312 -64.863281 66.84375 -67.96875 C 63.5 -71.070312 59.40625 -72.625 54.5625 -72.625 C 49.34375 -72.625 44.898438 -71.070312 41.234375 -67.96875 C 37.578125 -64.863281 35.503906 -60.707031 35.015625 -55.5 Z M 71.875 -55.5 "/></g></g></g><g clip-path="url(#3c513829b4)"><g transform="matrix(1, 0, 0, 1, 1, 0)"><g clip-path="url(#1615045e98)"><g clip-path="url(#d48cb31a1a)"><g mask="url(#e8b8128181)"><g><g clip-path="url(#a7a449a169)"><g clip-path="url(#e738ebf890)"><path fill="url(#5b70b0a711)" d="M 592.09375 0 L 592.09375 375 L 1229 375 L 1229 0 Z M 592.09375 0 " fill-rule="nonzero"/></g></g></g></g></g></g></g></g></g></g></svg>